<?xml version="1.0" encoding="utf-8"?>
<!-- Generator: Adobe Illustrator 25.2.0, SVG Export Plug-In . SVG Version: 6.00 Build 0)  -->
<svg version="1.1" id="Layer_1" xmlns="http://www.w3.org/2000/svg" xmlns:xlink="http://www.w3.org/1999/xlink" x="0px" y="0px"
	 viewBox="0 0 300 100" style="enable-background:new 0 0 300 100;" xml:space="preserve">
<style type="text/css">
	.st0{fill:#DE206A;}
	.st1{fill:#FFFFFF;}
</style>
<g>
	<path id="Rectangle-2_10_" class="st0" d="M191.04,22.68h104.14c2.66,0,4.81,2.16,4.81,4.81V83.5c0,2.66-2.16,4.81-4.81,4.81
		H191.04c-2.66,0-4.81-2.16-4.81-4.81V27.49C186.23,24.83,188.39,22.68,191.04,22.68z"/>
	<g>
		<g>
			<path id="ave-copy-4_8_" class="st0" d="M78.41,37.09c0.14-0.14,0.52-1.04,1.14-2.69c3.23,0,7.57,0.97,13,2.9
				c-1.72,5.73-3.1,11.71-4.13,17.96c-1.03,6.24-1.55,10.7-1.55,13.35s0.28,3.98,0.83,3.98c0.41,0,1.93-0.66,4.54-1.97L93.47,70
				l1.86,3.62c-0.62,0.55-1.43,1.24-2.43,2.07c-1,0.83-2.87,1.95-5.63,3.36c-2.75,1.41-5.23,2.12-7.43,2.12
				c-4.27,0-6.74-1.93-7.43-5.8c-4.4,3.86-8.38,5.8-11.92,5.8c-3.54,0-6.54-1.38-8.98-4.14c-2.44-2.76-3.66-7.11-3.66-13.04
				c0-9.25,1.89-16.54,5.68-21.89c3.78-5.35,8.36-8.02,13.73-8.02C71.11,34.08,74.83,35.08,78.41,37.09L78.41,37.09z M66.64,72.38
				c1.65,0,3.51-0.66,5.57-1.97c0.48-9.73,2.1-19.36,4.85-28.88c-2.06-0.9-3.82-1.35-5.26-1.35c-2.48,0-4.59,2.43-6.35,7.3
				c-1.75,4.86-2.63,10.23-2.63,16.09S64.09,72.38,66.64,72.38L66.64,72.38z M113.96,35.95c1.48,1.24,2.22,3.8,2.22,7.66
				c0,2.07-0.62,6.3-1.86,12.68c-1.24,6.38-1.86,10.26-1.86,11.64c0,2.76,0.55,4.14,1.65,4.14c2.61,0,5.49-1.95,8.62-5.85
				c3.13-3.9,4.76-7.16,4.9-9.78l-7.02-7.87c0.28-2.97,1-5.66,2.17-8.07c1.17-2.42,2.27-4.11,3.3-5.07l1.44-1.35
				c2.96,0,5.19,0.79,6.71,2.38c1.51,1.59,2.27,3.45,2.27,5.59c0,5.45-1.34,11.21-4.03,17.29c-2.68,6.07-6.26,11.23-10.73,15.47
				c-4.47,4.24-9.01,6.37-13.62,6.37c-2.89,0-5.11-0.9-6.66-2.69c-1.55-1.79-2.32-4.16-2.32-7.09c0-2.93,0.22-6.88,0.67-11.85
				c0.45-4.97,0.67-9.9,0.67-14.8c0-1.1-0.4-2.42-1.19-3.93s-1.6-2.73-2.43-3.62l0.31-1.24c3.72-1.24,7.07-1.86,10.06-1.86
				C110.25,34.08,112.48,34.7,113.96,35.95L113.96,35.95z M137.44,62.03c0-8.63,2.6-15.44,7.79-20.44c5.2-5,11.1-7.5,17.7-7.5
				c4.06,0,7.4,1,10.01,3s3.92,4.67,3.92,8.02s-0.84,6.16-2.53,8.44c-1.69,2.28-3.73,4.04-6.14,5.28
				c-4.89,2.42-9.36,3.93-13.42,4.55l-2.48,0.31c0.48,6.49,3.13,9.73,7.95,9.73c1.65,0,3.41-0.41,5.26-1.24
				c1.86-0.83,3.3-1.66,4.33-2.48l1.55-1.24l2.48,3.31c-0.55,0.76-1.65,1.76-3.3,3c-1.65,1.24-3.2,2.28-4.64,3.11
				c-3.99,2.21-8.36,3.31-13.11,3.31s-8.5-1.69-11.25-5.07S137.44,68.03,137.44,62.03L137.44,62.03z M160.56,54.16
				c2.06-2.35,3.1-5.38,3.1-9.11c0-3.73-1.1-5.59-3.3-5.59c-2.61,0-4.63,2.23-6.04,6.68s-2.12,8.61-2.12,12.47
				C155.71,57.99,158.5,56.51,160.56,54.16L160.56,54.16z"/>
			<path id="Combined-Shape-Copy-3_8_" class="st0" d="M42.85,8.77c-2.46-0.92-5.02-0.38-5.65,5.24
				c-0.32,6.06-0.67,11.61-1.05,16.69c8.14-0.36,13.28,2.12,13.28,2.12l-0.29,3.59c-3.96-1.13-8.7-0.97-13.42-0.17
				c-2.77,33.41-6.43,43.93-6.43,43.93S24.56,96.53,9.58,96.03C0.67,96.03,0,89.6,0,89.6l3.1-1.93c0,0,5.01,11.15,10.53-1.43
				c3.27-7.46,6.45-29.53,8.49-46.27c-5.59,2.03-9.53,4.01-9.53,4.01l-1.72-3.44c4.19-3.15,8.23-5.36,12.01-6.88
				c0.96-8.3,1.52-14.15,1.52-14.15S26.46,3.47,41.44,3.97c0.51,0,0.99,0.02,1.44,0.06l0-0.02c0,0,9.52,0.4,11.73,8.04
				c-0.29,2.63-3.53,5.44-4.55,5.6c-5-1.68-7.26-3.5-7.26-3.5L42.85,8.77z"/>
		</g>
	</g>
	<g>
		<path class="st1" d="M213.82,39.29c6.77,0,11.41,4.64,11.41,11.48c0,6.73-4.8,11.34-11.67,11.34h-7.36v11.13h-6.07V39.29H213.82z
			 M206.2,57.07h6c4.33,0,6.87-2.26,6.87-6.31c0-4.16-2.47-6.4-6.85-6.4h-6.02V57.07z"/>
		<path class="st1" d="M248.66,64.55h-12.49l-2.92,8.68h-6.14l12.04-33.94h6.82l12.07,33.94h-6.52L248.66,64.55z M237.58,59.75h9.67
			l-4.61-14h-0.4L237.58,59.75z"/>
		<path class="st1" d="M269.48,73.23V59.96l-11.9-20.68h6.66l8.09,14.51h0.4l8.07-14.51h6.66l-11.9,20.68v13.27H269.48z"/>
	</g>
</g>
</svg>
